<?xml version="1.0" encoding="UTF-8"?>
<svg version="1.1" xmlns="http://www.w3.org/2000/svg" width="1500" height="456">
<path d="M0 0 C495 0 990 0 1500 0 C1500 150.48 1500 300.96 1500 456 C1005 456 510 456 0 456 C0 305.52 0 155.04 0 0 Z " fill="#FEFEFE" transform="translate(0,0)"/>
<path d="M0 0 C0.99178253 -0.00960754 1.98356506 -0.01921509 3.00540161 -0.02911377 C4.07724701 -0.03336365 5.14909241 -0.03761353 6.25341797 -0.04199219 C7.35982635 -0.04769226 8.46623474 -0.05339233 9.60617065 -0.05926514 C11.95146732 -0.06871857 14.29677729 -0.07525047 16.64208984 -0.07910156 C20.21068938 -0.08877256 23.77870448 -0.11977913 27.34716797 -0.15136719 C29.62841456 -0.1579009 31.90966526 -0.16314992 34.19091797 -0.16699219 C35.25061798 -0.17933899 36.31031799 -0.19168579 37.40213013 -0.20440674 C43.8865936 -0.18515216 49.11790747 0.7264613 55.12060547 3.16113281 C56.30525391 3.58652344 57.48990234 4.01191406 58.71044922 4.45019531 C70.33712378 9.09001176 79.26158679 15.90871283 85.12060547 27.16113281 C88.82525485 36.08729589 89.30702561 44.55991362 89.3059082 54.1237793 C89.30807351 56.19308717 89.32619499 58.26184243 89.34521484 60.33105469 C89.41949581 77.37540473 86.68154125 90.24443697 75.12060547 103.16113281 C71.68789574 106.58664608 68.97882926 109.22970864 64.12060547 110.16113281 C64.12060547 110.82113281 64.12060547 111.48113281 64.12060547 112.16113281 C62.37513163 112.79866404 60.62383638 113.42025426 58.87060547 114.03613281 C57.89607422 114.38417969 56.92154297 114.73222656 55.91748047 115.09082031 C44.4095032 118.3348386 33.09888482 118.5038422 21.22827148 118.47680664 C18.29683088 118.47362056 15.36637697 118.49726896 12.43505859 118.52246094 C10.55289839 118.52473206 8.67073551 118.5254383 6.78857422 118.52441406 C5.48837593 118.53822868 5.48837593 118.53822868 4.16191101 118.55232239 C-1.2698064 118.51114452 -5.08237473 117.77219813 -9.87939453 115.16113281 C-15.05617372 108.89450538 -15.03011184 103.00475367 -15.04052734 95.25927734 C-15.04549225 94.37246277 -15.05045715 93.48564819 -15.05557251 92.57196045 C-15.07014615 89.64594744 -15.07698755 86.71998861 -15.08251953 83.79394531 C-15.08827421 81.75519815 -15.0940319 79.716451 -15.09979248 77.67770386 C-15.11028831 73.40573882 -15.11614049 69.13379252 -15.11962891 64.86181641 C-15.12511563 59.39540966 -15.14915358 53.92925174 -15.17760086 48.46292305 C-15.19624772 44.25238322 -15.2014339 40.04190316 -15.20296478 35.83132553 C-15.20598637 33.81635043 -15.21399818 31.80137625 -15.22714996 29.7864418 C-15.24425584 26.96469544 -15.24231928 24.1435549 -15.23583984 21.32177734 C-15.24505463 20.49453156 -15.25426941 19.66728577 -15.26376343 18.81497192 C-15.21844842 12.49676497 -14.05663464 7.74660545 -9.87939453 2.78613281 C-6.68983535 0.19461598 -3.96381926 0.03103063 0 0 Z " fill="#D173BB" transform="translate(377.87939453125,158.8388671875)"/>
<path d="M0 0 C6.08429786 2.28949875 11.36302125 7.40947265 14.63671875 12.9921875 C16.35520806 18.47718017 16.40557911 24.2205663 16.55224609 29.92626953 C16.65234764 32.37441777 17.03211809 34.6669617 17.57421875 37.0546875 C18.2545389 40.0713009 18.82038831 43.07724727 19.2890625 46.1328125 C20.54869838 54.32348831 22.03994708 62.12108885 24.66015625 70.01171875 C25.92797987 73.88111645 26.93027902 77.80312644 27.92578125 81.75 C28.6008839 84.23881661 28.6008839 84.23881661 30.63671875 86.9921875 C31.2425317 85.34695943 31.84626142 83.70096426 32.44921875 82.0546875 C32.78566406 81.13816406 33.12210938 80.22164063 33.46875 79.27734375 C36.08666883 71.91389982 38.32336525 64.59657315 40.13671875 56.9921875 C41.31734614 52.04116941 42.53189353 47.1653416 44.1953125 42.3515625 C45.5757282 38.33484428 46.44040772 34.42215227 47.19921875 30.2421875 C47.98999837 25.89960114 48.90797152 22.04916689 50.63671875 17.9921875 C50.94609375 16.7959375 51.25546875 15.5996875 51.57421875 14.3671875 C52.61084491 11.07437499 52.99845277 10.01428199 55.63671875 7.9921875 C57.73388672 7.60400391 57.73388672 7.60400391 60.12890625 7.59375 C61.43408203 7.58794922 61.43408203 7.58794922 62.765625 7.58203125 C63.67183594 7.59363281 64.57804688 7.60523438 65.51171875 7.6171875 C66.41019531 7.60558594 67.30867187 7.59398437 68.234375 7.58203125 C77.20007571 7.62176109 77.20007571 7.62176109 80.63671875 10.9921875 C81.73845644 13.79579643 82.51788622 16.27673725 83.19921875 19.1796875 C83.40192383 19.9725415 83.60462891 20.76539551 83.81347656 21.58227539 C84.43977775 24.04803004 85.03909874 26.51934474 85.63671875 28.9921875 C86.02419342 30.5395265 86.41345158 32.08642023 86.8046875 33.6328125 C87.49450594 36.36322993 88.17229073 39.09609413 88.83984375 41.83203125 C89.59381788 44.98793065 89.59381788 44.98793065 90.63671875 47.9921875 C90.76453661 50.66613714 90.68063746 53.31314607 90.63671875 55.9921875 C91.29671875 55.9921875 91.95671875 55.9921875 92.63671875 55.9921875 C92.89888184 56.85497314 93.16104492 57.71775879 93.43115234 58.60668945 C94.40752451 61.81153069 95.38829565 65.01495624 96.37207031 68.2175293 C96.79669077 69.60305613 97.21955819 70.98912149 97.640625 72.37573242 C98.24668026 74.37042609 98.85904416 76.36308867 99.47265625 78.35546875 C99.8392334 79.55469971 100.20581055 80.75393066 100.58349609 81.98950195 C101.54143866 85.11797125 101.54143866 85.11797125 103.63671875 87.9921875 C108.71798736 75.71065315 111.17683085 63.00854622 113.63671875 49.9921875 C113.79946289 49.1554248 113.96220703 48.31866211 114.12988281 47.45654297 C115.44440935 40.64400207 116.68774471 33.96851486 116.72265625 27.01171875 C116.80391045 12.77157629 116.80391045 12.77157629 122.07421875 6.9296875 C123.55753971 5.57493689 125.07225831 4.25236756 126.63671875 2.9921875 C127.29671875 2.3321875 127.95671875 1.6721875 128.63671875 0.9921875 C132.498452 0.4412829 134.13655396 0.6454256 137.375 2.890625 C138.22449219 3.70789063 139.07398438 4.52515625 139.94921875 5.3671875 C140.81160156 6.17929688 141.67398438 6.99140625 142.5625 7.828125 C146.81925229 12.26925639 145.93875496 17.33239452 145.8671875 23.17578125 C145.13459083 45.49431542 145.13459083 45.49431542 141.63671875 48.9921875 C141.31059465 50.65245564 141.02632177 52.32101053 140.76171875 53.9921875 C139.99779722 58.38898032 138.91761472 62.41529075 137.421875 66.609375 C136.50379789 69.39557916 135.81951595 72.20195365 135.13671875 75.0546875 C134.13834338 79.15164756 133.0039691 83.04487509 131.4375 86.95703125 C130.85592635 88.43507941 130.31705955 89.93015464 129.8046875 91.43359375 C121.14966871 116.73571252 121.14966871 116.73571252 112.63671875 120.9921875 C109.89197835 121.17049332 107.19592823 121.26986025 104.44921875 121.3046875 C103.33450195 121.34819336 103.33450195 121.34819336 102.19726562 121.39257812 C96.51488974 121.45732036 93.267142 120.3299988 88.63671875 116.9921875 C86.78125 114.765625 86.78125 114.765625 85.44921875 112.3671875 C85.00191406 111.59117187 84.55460938 110.81515625 84.09375 110.015625 C75.32451426 91.81887308 69.52141735 71.7534804 65.63671875 51.9921875 C64.31671875 58.2621875 62.99671875 64.5321875 61.63671875 70.9921875 C60.97671875 70.9921875 60.31671875 70.9921875 59.63671875 70.9921875 C59.59546875 72.2709375 59.55421875 73.5496875 59.51171875 74.8671875 C58.11276466 88.60413947 51.72720744 101.77517173 45.63671875 113.9921875 C44.97671875 113.9921875 44.31671875 113.9921875 43.63671875 113.9921875 C43.40984375 114.5903125 43.18296875 115.1884375 42.94921875 115.8046875 C41.16309986 118.78155232 39.82292654 119.52880199 36.63671875 120.9921875 C33.15403098 121.57891427 29.72583912 121.68369483 26.19921875 121.7421875 C25.27044922 121.8040625 24.34167969 121.8659375 23.38476562 121.9296875 C19.45345396 121.99684158 16.74509453 122.01983512 13.77636719 119.26733398 C10.21201068 114.15935412 7.88003809 108.38432962 5.76171875 102.5546875 C5.42930176 101.65637207 5.09688477 100.75805664 4.75439453 99.83251953 C-3.78111198 76.35085601 -10.47328705 52.26212971 -13.92041016 27.48754883 C-14.10579272 25.05878868 -14.10579272 25.05878868 -15.36328125 23.9921875 C-16.35636269 18.83003777 -16.43409834 14.62529557 -13.49609375 10.14453125 C-11.21678321 7.60739706 -8.91390138 5.25565172 -6.36328125 2.9921875 C-5.7084375 2.38375 -5.05359375 1.7753125 -4.37890625 1.1484375 C-2.36328125 -0.0078125 -2.36328125 -0.0078125 0 0 Z " fill="#B670CB" transform="translate(607.36328125,156.0078125)"/>
<path d="M0 0 C0.88494644 -0.00095673 1.76989288 -0.00191345 2.68165588 -0.00289917 C4.54664176 -0.00357734 6.41163004 -0.00174848 8.27661133 0.00244141 C11.11610269 0.00778839 13.95543543 0.00248733 16.79492188 -0.00390625 C18.6132816 -0.00324528 20.43164122 -0.00196373 22.25 0 C23.09187363 -0.00202423 23.93374725 -0.00404846 24.8011322 -0.00613403 C29.53567842 0.01249876 34.02149766 0.3437198 38.69140625 1.1328125 C38.69140625 1.7928125 38.69140625 2.4528125 38.69140625 3.1328125 C39.61953125 3.1328125 40.54765625 3.1328125 41.50390625 3.1328125 C47.44677631 3.97137699 52.42682332 8.13306832 56.69140625 12.1328125 C60.95759023 19.27772682 61.70007699 26.95359134 60.69140625 35.1328125 C57.88666571 43.59137785 52.61486967 49.13698671 44.69140625 53.1328125 C43.70140625 53.1328125 42.71140625 53.1328125 41.69140625 53.1328125 C41.69140625 54.1228125 41.69140625 55.1128125 41.69140625 56.1328125 C42.24828125 56.20757812 42.80515625 56.28234375 43.37890625 56.359375 C50.98637775 57.67012178 55.62021291 61.06161916 61.00390625 66.4453125 C66.23172121 74.77109188 67.23930973 84.30840783 65.0703125 93.87109375 C61.96112838 102.75645104 55.68338852 109.35442397 47.69140625 114.1328125 C44.95208418 115.03658266 42.41030383 115.76152595 39.609375 116.359375 C38.83031296 116.52797028 38.05125092 116.69656555 37.24858093 116.87026978 C28.72902654 118.55266884 20.28495056 118.6694119 11.62817383 118.54443359 C8.96722957 118.50730068 6.30766418 118.50342032 3.64648438 118.50390625 C1.92837348 118.4940923 0.21027186 118.48244289 -1.5078125 118.46875 C-2.29016769 118.46652435 -3.07252289 118.46429871 -3.87858582 118.46200562 C-9.11980111 118.37190039 -14.9943405 118.2395094 -19.05078125 114.546875 C-19.42460938 113.95648438 -19.7984375 113.36609375 -20.18359375 112.7578125 C-20.57289062 112.17257812 -20.9621875 111.58734375 -21.36328125 110.984375 C-23.7370197 106.33498646 -23.46287556 101.4674938 -23.46972656 96.36035156 C-23.47469147 95.47528931 -23.47965637 94.59022705 -23.48477173 93.67834473 C-23.49937043 90.75170105 -23.50619196 87.8251116 -23.51171875 84.8984375 C-23.5174726 82.86065673 -23.52323031 80.82287597 -23.5289917 78.78509521 C-23.53949552 74.51134998 -23.54534207 70.23762352 -23.54882812 65.96386719 C-23.55430795 60.4986509 -23.57832778 55.03368435 -23.60680008 49.5685463 C-23.62546317 45.35796392 -23.63063404 41.14744122 -23.632164 36.93682098 C-23.63518335 34.92267239 -23.64318755 32.90852466 -23.65634918 30.89441681 C-23.67348448 28.07037092 -23.67151104 25.24692895 -23.66503906 22.42285156 C-23.67425385 21.59763 -23.68346863 20.77240845 -23.69296265 19.92218018 C-23.64639149 13.40524999 -22.64342751 7.59385349 -17.99609375 2.6953125 C-12.4900327 -0.50588578 -6.19368993 -0.01485661 0 0 Z " fill="#7869F2" transform="translate(1249.30859375,158.8671875)"/>
<path d="M0 0 C0.96873047 -0.04125 1.93746094 -0.0825 2.93554688 -0.125 C9.14314931 -0.19215459 12.94760009 0.69646455 17.68334961 4.80566406 C22.00593086 9.30120039 24.56208542 14.96930325 27.3125 20.5 C27.65893555 21.18239746 28.00537109 21.86479492 28.36230469 22.56787109 C38.92671125 43.66285493 46.74323386 67.37334623 51.3125 90.5 C51.53292969 91.36753906 51.75335938 92.23507813 51.98046875 93.12890625 C53.93139639 101.07664503 53.70672682 109.36792577 53.3125 117.5 C50.72294843 120.08955157 43.36072397 118.68558792 39.875 118.6875 C38.70388672 118.69974609 37.53277344 118.71199219 36.32617188 118.72460938 C35.20919922 118.72654297 34.09222656 118.72847656 32.94140625 118.73046875 C31.91088135 118.73457764 30.88035645 118.73868652 29.81860352 118.74291992 C27.3125 118.5 27.3125 118.5 25.3125 116.5 C24.86613823 113.73430748 24.51895775 111.03312801 24.25 108.25 C24.09378468 106.74465235 23.93625554 105.23944039 23.77734375 103.734375 C23.67860962 102.73229004 23.67860962 102.73229004 23.57788086 101.70996094 C23.24774403 98.96074419 22.76771551 96.23129308 22.3125 93.5 C0.5325 93.005 0.5325 93.005 -21.6875 92.5 C-22.0175 96.79 -22.3475 101.08 -22.6875 105.5 C-23.25377561 109.85246874 -23.97374486 114.16988546 -24.6875 118.5 C-28.99998609 118.52886537 -33.31244762 118.54675255 -37.625 118.5625 C-38.85669922 118.57087891 -40.08839844 118.57925781 -41.35742188 118.58789062 C-42.52724609 118.59111328 -43.69707031 118.59433594 -44.90234375 118.59765625 C-46.52837524 118.60551147 -46.52837524 118.60551147 -48.18725586 118.61352539 C-50.6875 118.5 -50.6875 118.5 -51.6875 117.5 C-54.49635765 93.70496307 -44.2189899 65.44629188 -35.078125 43.796875 C-33.72199997 40.58179207 -32.51121024 37.33897465 -31.3125 34.0625 C-18.28171312 0.19080718 -18.28171312 0.19080718 0 0 Z " fill="#DE75B3" transform="translate(290.6875,158.5)"/>
<path d="M0 0 C0.95519531 -0.02771484 1.91039062 -0.05542969 2.89453125 -0.08398438 C9.01394424 -0.06299873 12.82111652 0.97256155 17.48925781 4.99975586 C21.82748955 9.47590452 24.37649971 15.16065262 27.125 20.6875 C27.47143555 21.36989746 27.81787109 22.05229492 28.17480469 22.75537109 C33.78127289 33.9503545 38.00033989 45.59656147 42 57.4375 C42.23506256 58.1242984 42.47012512 58.8110968 42.71231079 59.51870728 C45.72134357 68.36219107 47.94797087 77.04627143 49.45361328 86.27050781 C50.05359104 89.32406737 50.89782278 91.8452699 52.125 94.6875 C53.23068205 99.63507729 53.27578745 104.45855301 53.25 109.5 C53.25386719 110.27537109 53.25773438 111.05074219 53.26171875 111.84960938 C53.25172546 117.56077454 53.25172546 117.56077454 52.125 118.6875 C50.27130389 118.77487645 48.41432459 118.79448153 46.55859375 118.78515625 C45.43388672 118.78193359 44.30917969 118.77871094 43.15039062 118.77539062 C41.96638672 118.76701172 40.78238281 118.75863281 39.5625 118.75 C38.37462891 118.74548828 37.18675781 118.74097656 35.96289062 118.73632812 C33.01687774 118.72449675 30.07096319 118.70801287 27.125 118.6875 C24.33414191 110.31492572 23.43417395 101.41532633 22.125 92.6875 C7.275 92.6875 -7.575 92.6875 -22.875 92.6875 C-23.16386363 100.1215229 -23.16386363 100.1215229 -23.44311523 107.5559082 C-23.5002771 108.94555786 -23.5002771 108.94555786 -23.55859375 110.36328125 C-23.59525146 111.31114502 -23.63190918 112.25900879 -23.66967773 113.2355957 C-23.875 115.6875 -23.875 115.6875 -24.875 118.6875 C-28.99998538 118.71642385 -33.12494485 118.73427267 -37.25 118.75 C-39.0134375 118.76256836 -39.0134375 118.76256836 -40.8125 118.77539062 C-41.93398438 118.77861328 -43.05546875 118.78183594 -44.2109375 118.78515625 C-45.76627197 118.79301147 -45.76627197 118.79301147 -47.35302734 118.80102539 C-49.875 118.6875 -49.875 118.6875 -51.875 117.6875 C-53.58238946 88.97806235 -41.52473356 58.81290117 -30.875 32.6875 C-30.43969971 31.61508057 -30.43969971 31.61508057 -29.99560547 30.52099609 C-17.38011393 -0.26756534 -17.38011393 -0.26756534 0 0 Z " fill="#C472C2" transform="translate(531.875,158.3125)"/>
<path d="M0 0 C2.99049398 1.25770856 4.71202679 2.9814753 6.94506836 5.32446289 C7.71206055 6.11594727 8.47905273 6.90743164 9.26928711 7.72290039 C12.23557918 11.0446813 13.50783755 12.99495015 13.50480652 17.40359497 C13.50900101 18.31500244 13.5131955 19.22640991 13.51751709 20.16543579 C13.51189758 21.16295868 13.50627808 22.16048157 13.50048828 23.18823242 C13.50238663 24.24044983 13.50428497 25.29266724 13.50624084 26.37677002 C13.50995196 29.86201376 13.49924076 33.34705011 13.48803711 36.83227539 C13.48684555 39.24697851 13.4863921 41.6616821 13.48664856 44.0763855 C13.48508319 49.13876239 13.47678837 54.20106862 13.46337891 59.26342773 C13.44637087 65.7684424 13.44256504 72.27337948 13.44332409 78.77841377 C13.44305285 83.76419828 13.43757932 88.74996565 13.43032265 93.73574448 C13.42712987 96.13525131 13.42516716 98.5347601 13.42442894 100.93426895 C13.42227284 104.27937413 13.41354502 107.62439517 13.40283203 110.96948242 C13.40328522 111.97105377 13.4037384 112.97262512 13.40420532 114.00454712 C13.39994034 114.91031494 13.39567535 115.81608276 13.39128113 116.7492981 C13.38960528 117.54090899 13.38792944 118.33251987 13.38620281 119.14811897 C13.25756836 120.94946289 13.25756836 120.94946289 12.25756836 121.94946289 C10.33089329 122.03694496 8.40104975 122.05643623 6.47241211 122.04711914 C5.41916748 122.04462158 4.36592285 122.04212402 3.28076172 122.03955078 C1.93248291 122.03044678 0.5842041 122.02134277 -0.80493164 122.01196289 C-5.07430664 121.99133789 -9.34368164 121.97071289 -13.74243164 121.94946289 C-13.74243164 105.77946289 -13.74243164 89.60946289 -13.74243164 72.94946289 C-29.91243164 72.94946289 -46.08243164 72.94946289 -62.74243164 72.94946289 C-62.70282374 88.37220975 -62.70282374 88.37220975 -62.65234375 103.79492188 C-62.64942473 105.7201329 -62.64687614 107.64534455 -62.64477539 109.57055664 C-62.63965942 110.58025513 -62.63454346 111.58995361 -62.62927246 112.63024902 C-62.62915161 113.58435669 -62.62903076 114.53846436 -62.62890625 115.52148438 C-62.62668564 116.35421371 -62.62446503 117.18694305 -62.62217712 118.04490662 C-62.74243164 119.94946289 -62.74243164 119.94946289 -63.74243164 120.94946289 C-67.71518979 121.20203166 -71.70009339 121.1346874 -75.67993164 121.13696289 C-77.36505859 121.15533203 -77.36505859 121.15533203 -79.08422852 121.17407227 C-80.15608398 121.17600586 -81.22793945 121.17793945 -82.33227539 121.17993164 C-83.81522095 121.18609497 -83.81522095 121.18609497 -85.328125 121.19238281 C-87.74243164 120.94946289 -87.74243164 120.94946289 -89.74243164 118.94946289 C-89.99411392 116.92857361 -89.99411392 116.92857361 -89.99639893 114.39453125 C-90.00203857 113.43545868 -90.00767822 112.47638611 -90.01348877 111.48825073 C-90.00944031 110.43259918 -90.00539185 109.37694763 -90.0012207 108.28930664 C-90.00647766 106.62582687 -90.00647766 106.62582687 -90.01184082 104.92874146 C-90.02067259 101.24808568 -90.01480381 97.56762076 -90.00805664 93.88696289 C-90.00940287 91.33870405 -90.01134305 88.79044546 -90.01385498 86.2421875 C-90.01680821 80.89556197 -90.01269181 75.54900539 -90.00317383 70.20239258 C-89.99228896 64.01642018 -89.99581444 57.83057961 -90.00682664 51.6446104 C-90.016987 45.69975877 -90.01592328 39.75494819 -90.01006317 33.81008911 C-90.00872518 31.27743512 -90.01037957 28.74477778 -90.01502228 26.21212769 C-90.02007862 22.67786637 -90.01238968 19.14386128 -90.0012207 15.60961914 C-90.00526917 14.55396759 -90.00931763 13.49831604 -90.01348877 12.41067505 C-90.00784912 11.45160248 -90.00220947 10.49252991 -89.99639893 9.50439453 C-89.99564487 8.66816055 -89.99489082 7.83192657 -89.99411392 6.97035217 C-89.74243164 4.94946289 -89.74243164 4.94946289 -87.74243164 2.94946289 C-85.22045898 2.72241211 -85.22045898 2.72241211 -82.07836914 2.75415039 C-80.95688477 2.7605957 -79.83540039 2.76704102 -78.67993164 2.77368164 C-77.50430664 2.79043945 -76.32868164 2.80719727 -75.11743164 2.82446289 C-73.34239258 2.83799805 -73.34239258 2.83799805 -71.53149414 2.85180664 C-68.60160641 2.87543477 -65.67211824 2.90837775 -62.74243164 2.94946289 C-61.56643134 5.30146349 -61.62158623 6.6868069 -61.62890625 9.30737305 C-61.6290271 10.22075439 -61.62914795 11.13413574 -61.62927246 12.07519531 C-61.63694641 13.5172937 -61.63694641 13.5172937 -61.64477539 14.98852539 C-61.64578247 15.87113037 -61.64678955 16.75373535 -61.64782715 17.66308594 C-61.65306769 20.96689143 -61.66702891 24.27067844 -61.67993164 27.57446289 C-61.70055664 34.95821289 -61.72118164 42.34196289 -61.74243164 49.94946289 C-46.23243164 49.94946289 -30.72243164 49.94946289 -14.74243164 49.94946289 C-15.21420999 38.35474808 -15.21420999 38.35474808 -15.82348633 26.76708984 C-16.13320526 17.83275591 -15.25661664 11.8873604 -9.00805664 5.17993164 C-4.01571536 -0.07400099 -4.01571536 -0.07400099 0 0 Z " fill="#926DE2" transform="translate(1065.742431640625,156.050537109375)"/>
<path d="M0 0 C4 0 4 0 6.3125 2 C6.7290535 2.46998413 7.14560699 2.93996826 7.57478333 3.42419434 C8.98833093 5.05694713 8.98833093 5.05694713 10.76445007 6.49475098 C15.27762992 10.68281644 16.50709592 13.9739665 16.85473633 20.11523438 C16.90668734 22.94328049 16.87309179 25.76576004 16.83203125 28.59375 C16.83634603 30.11016114 16.84402893 31.62656605 16.85490417 33.14294434 C16.87574172 37.11866852 16.85685828 41.09315268 16.82763672 45.06878662 C16.7880332 51.42978228 16.81128851 57.79089685 16.83063316 64.15193176 C16.83200322 66.36106141 16.8176943 68.56963263 16.80049133 70.77868652 C16.76033041 80.43653413 17.08166581 89.0022511 23 97 C30.67206915 99.84609017 40.81737947 100.73998643 48.7109375 98.08984375 C53.67305332 95.22140877 55.82117419 91.68376671 57.5625 86.24221802 C58.15742204 83.19320108 58.09198621 80.293481 58.0625 77.18701172 C58.05305697 75.78408978 58.04387309 74.38116607 58.03491211 72.97824097 C58.02861786 72.23758266 58.02232361 71.49692436 58.01583862 70.73382187 C57.98871987 66.78870368 57.99875211 62.84362288 58.00390625 58.8984375 C58.01010092 53.88820717 58.00493414 48.8791037 57.94873047 43.86914062 C57.90420076 39.81142414 57.90405679 35.75577376 57.93286133 31.69794083 C57.93592236 30.15989183 57.92323176 28.62172044 57.89379883 27.08395004 C57.75212247 19.24625571 57.92182835 13.287453 63.37890625 7.16455078 C64.88771708 5.74213501 66.42507459 4.34884643 68 3 C68.50781006 2.41910614 69.01562012 1.83821228 69.53881836 1.23971558 C71 0 71 0 75 0 C77.375 2.0625 77.375 2.0625 80 5 C80.50969833 5.40030426 81.01939667 5.80060852 81.54454041 6.21304321 C84.74533755 9.04541019 85.88922341 11.28235468 86.54666138 15.54144287 C86.82450011 20.09685639 86.75501875 24.6499246 86.69140625 29.2109375 C86.6878246 30.90572799 86.68647269 32.60052451 86.6872406 34.2953186 C86.68255935 37.84114076 86.65780336 41.38604854 86.61743164 44.93164062 C86.56654036 49.45629216 86.55498733 53.97993852 86.55726719 58.50484276 C86.55644764 62.00354449 86.53993212 65.50203042 86.51826286 69.00065994 C86.50877519 70.6678568 86.50281772 72.3350779 86.50058174 74.00230026 C86.47673386 82.49122053 86.35683827 90.05274501 83 98 C82.57437409 99.35137747 82.15665836 100.70529425 81.75 102.0625 C78.11099459 111.27887551 71.16101191 115.40334259 62.59765625 119.5546875 C47.2956404 125.70207715 26.46221353 125.40348105 10.86328125 120.2578125 C2.49895592 116.58344312 -3.49564956 110.6247871 -7.22265625 102.25390625 C-9.98363993 94.96055509 -11.10738195 88.31015011 -11.25634766 80.50097656 C-11.27095032 79.77489197 -11.28555298 79.04880737 -11.30059814 78.30072021 C-11.4262086 71.63377125 -11.4953062 64.96570839 -11.54844093 58.29782486 C-11.58420175 53.82949905 -11.63755762 49.36297377 -11.73388672 44.89550781 C-11.82711389 40.55711425 -11.87542172 36.22031224 -11.89283371 31.88097382 C-11.90685015 30.23670587 -11.93631297 28.59248822 -11.98213577 26.94879913 C-12.19867657 18.78404895 -12.31548929 12.48293919 -6.56787109 6.03808594 C-5.08006375 4.65367077 -3.56311067 3.29879216 -2 2 C-1.34 1.34 -0.68 0.68 0 0 Z " fill="#A66ED5" transform="translate(781,156)"/>
<path d="M0 0 C3.20763468 0.39024636 4.38160998 1.29275257 6.7578125 3.4453125 C7.75167969 4.31542969 7.75167969 4.31542969 8.765625 5.203125 C12.89030764 9.8800664 14.00662393 14.1362937 14.00170898 20.28442383 C14.00547546 20.95359329 14.00924194 21.62276276 14.01312256 22.31221008 C14.01952548 23.75589922 14.01925288 25.19963056 14.01293755 26.64332008 C14.00377213 28.93589247 14.01411321 31.22765643 14.02955627 33.52018738 C14.06949896 40.03468664 14.07086547 46.54911927 14.06860352 53.0637207 C14.06855215 57.05843507 14.08784928 61.05271339 14.11793709 65.04730797 C14.12867963 67.29248122 14.11668119 69.53679213 14.10411072 71.78193665 C14.12412907 79.42915683 14.6129898 85.6742987 18.6328125 92.3203125 C19.2103125 93.3103125 19.7878125 94.3003125 20.3828125 95.3203125 C23.58324398 98.16514048 26.53454542 98.21369092 30.6328125 98.3203125 C31.58027344 98.3821875 32.52773437 98.4440625 33.50390625 98.5078125 C40.22197548 98.7816701 46.22469318 98.65957546 51.6328125 94.3203125 C56.78643023 86.20158067 57.28575188 77.73160534 57.07157135 68.39348984 C57.02216752 66.12929657 57.00883779 63.86727484 57.00457764 61.60256958 C56.98684118 55.17519813 56.91068645 48.74918499 56.80126953 42.32275391 C56.73637582 38.36629706 56.71590472 34.41151608 56.72142792 30.45456314 C56.71451693 28.96104376 56.69074399 27.46749284 56.64887238 25.97454453 C56.43286473 18.20378147 56.65100095 12.52094646 62.06542969 6.45361328 C63.55580395 5.04119919 65.07303779 3.65568955 66.6328125 2.3203125 C67.2928125 1.6603125 67.9528125 1.0003125 68.6328125 0.3203125 C70.96484375 -0.07421875 70.96484375 -0.07421875 73.6328125 0.3203125 C76.01953125 2.18359375 76.01953125 2.18359375 78.3203125 4.6328125 C79.08730469 5.43332031 79.85429688 6.23382813 80.64453125 7.05859375 C84.39498803 11.32483044 84.92349373 14.11084927 84.89160156 19.58642578 C84.8951062 20.32343216 84.89861084 21.06043854 84.90222168 21.81977844 C84.91103394 24.2601561 84.90518808 26.70024429 84.8984375 29.140625 C84.89978516 30.84113623 84.90172654 32.54164707 84.90423584 34.24215698 C84.90718713 37.8115403 84.90289252 41.38082362 84.89355469 44.95019531 C84.88221207 49.50618102 84.88868645 54.06192974 84.90069962 58.61790657 C84.90796257 62.13369497 84.90560912 65.6494282 84.90044403 69.16521835 C84.89911706 70.84359643 84.90072157 72.52197964 84.90540314 74.20035172 C84.93317942 86.96830884 84.56801176 96.79970997 76.6328125 107.3203125 C75.8903125 108.3928125 75.1478125 109.4653125 74.3828125 110.5703125 C70.56793423 114.38519077 66.57767003 116.26396702 61.6328125 118.3203125 C60.77816406 118.71605469 59.92351562 119.11179687 59.04296875 119.51953125 C43.7810025 125.48614357 21.69144136 124.85176598 6.6328125 118.3203125 C2.75628793 115.99921332 -0.30783751 113.6252416 -3.2421875 110.1953125 C-3.83773438 109.51210938 -4.43328125 108.82890625 -5.046875 108.125 C-6.3671875 106.3203125 -6.3671875 106.3203125 -6.3671875 104.3203125 C-7.0271875 104.3203125 -7.6871875 104.3203125 -8.3671875 104.3203125 C-8.3671875 103.0003125 -8.3671875 101.6803125 -8.3671875 100.3203125 C-9.0271875 100.3203125 -9.6871875 100.3203125 -10.3671875 100.3203125 C-13.09060902 89.77670953 -13.89691143 79.94415299 -13.9765625 69.1171875 C-13.98504463 68.3260984 -13.99352676 67.53500931 -14.00226593 66.71994781 C-14.04679428 62.54569155 -14.07477526 58.37173513 -14.08789062 54.19726562 C-14.10442771 49.9174265 -14.1767945 45.64041104 -14.26180649 41.36146164 C-14.31792197 38.03603136 -14.33331324 34.71127767 -14.33789825 31.38541412 C-14.34690354 29.80818225 -14.37073707 28.23095514 -14.4104538 26.65419769 C-14.59766692 18.66228809 -14.54835375 12.70207853 -8.93066406 6.40332031 C-7.44292559 5.00586312 -5.92722648 3.63656884 -4.3671875 2.3203125 C-2.3671875 0.3203125 -2.3671875 0.3203125 0 0 Z " fill="#846AEB" transform="translate(1116.3671875,156.6796875)"/>
<path d="M0 0 C10.50101523 -0.23251815 21.00141043 -0.40979133 31.50448322 -0.51812172 C36.38258102 -0.57013793 41.25890777 -0.64059022 46.13598633 -0.75439453 C50.84997418 -0.86369472 55.56226786 -0.92297305 60.27742577 -0.94877243 C62.06885624 -0.9671371 63.86020216 -1.00300155 65.6509037 -1.05730057 C81.13502407 -1.50780494 81.13502407 -1.50780494 87.22126293 3.64609718 C89.29711103 5.64831763 91.18939768 7.75671821 93 10 C92 14 92 14 83 22 C73.76 22 64.52 22 55 22 C55 53.35 55 84.7 55 117 C52.39048764 118.30475618 50.47298715 118.11301572 47.5546875 118.09765625 C45.94013672 118.09282227 45.94013672 118.09282227 44.29296875 118.08789062 C43.16503906 118.07951172 42.03710938 118.07113281 40.875 118.0625 C39.17150391 118.05573242 39.17150391 118.05573242 37.43359375 118.04882812 C34.62234362 118.03701615 31.8111977 118.02054507 29 118 C27.31927225 114.6385445 27.87123171 110.84012532 27.88647461 107.14404297 C27.88632858 106.22691528 27.88618256 105.3097876 27.8860321 104.36486816 C27.88673052 101.32395081 27.8945196 98.2830942 27.90234375 95.2421875 C27.90420818 93.13754307 27.90563197 91.0328982 27.90663147 88.92825317 C27.91045465 83.38143725 27.92028326 77.8346474 27.93133545 72.2878418 C27.94155384 66.6307002 27.94613001 60.97355441 27.95117188 55.31640625 C27.96190569 44.21092603 27.97897974 33.10546518 28 22 C27.18845459 22.0314209 26.37690918 22.0628418 25.54077148 22.09521484 C21.83996807 22.22045086 18.13961112 22.29813956 14.4375 22.375 C12.52227539 22.45041016 12.52227539 22.45041016 10.56835938 22.52734375 C-0.06845536 22.69311229 -0.06845536 22.69311229 -4.27734375 19.1640625 C-9 14.22747199 -9 14.22747199 -9 10.6875 C-7.60306638 6.93324091 -5.15683225 4.43670606 -2 2 C-1.34 2 -0.68 2 0 2 C0 1.34 0 0.68 0 0 Z " fill="#E876AD" transform="translate(155,159)"/>
<path d="M0 0 C2.3125 2 2.3125 2 3.57478333 3.43188477 C4.97956262 5.05782423 4.97956262 5.05782423 6.76445007 6.42553711 C10.84082113 10.08973918 12.3994722 13.23036952 12.78506184 18.74784851 C12.91024235 22.68889883 12.88239808 26.62037301 12.83203125 30.5625 C12.83634448 32.28069184 12.84402508 33.9988782 12.85490417 35.71704102 C12.87576105 40.22536606 12.85683701 44.73259903 12.82763672 49.24084473 C12.78806199 56.45461493 12.81126472 63.66848903 12.83063316 70.8822937 C12.83200556 73.39054578 12.8176783 75.89830856 12.80049133 78.40649414 C12.7974816 79.95719353 12.79471718 81.50789342 12.79223633 83.05859375 C12.7833992 83.74662079 12.77456207 84.43464783 12.76545715 85.14352417 C12.77335174 90.08622072 13.67016971 94.27942627 15 99 C16.46638916 98.92930298 16.46638916 98.92930298 17.96240234 98.85717773 C21.63317988 98.69272904 25.30364251 98.59042099 28.97705078 98.50561523 C30.55833894 98.46069776 32.13926064 98.39953371 33.71923828 98.32104492 C48.49586719 97.60604675 48.49586719 97.60604675 55.1640625 103.22265625 C57.52978516 105.56274414 57.52978516 105.56274414 59 108 C58.69558596 112.28368133 57.26550934 114.34436778 54.18359375 117.25488281 C48.66868261 121.88080941 44.05859613 122.1110841 37.0625 121.921875 C35.94238525 121.92004211 34.82227051 121.91820923 33.66821289 121.9163208 C31.31151265 121.90429347 28.95483979 121.87293486 26.59863281 121.82324219 C23.00991005 121.7502017 19.42532647 121.74120438 15.8359375 121.7421875 C13.53642299 121.72252155 11.23693619 121.69920592 8.9375 121.671875 C7.87474854 121.66742371 6.81199707 121.66297241 5.71704102 121.65838623 C-1.63834726 121.47278763 -8.60154187 120.39845813 -14 115 C-15.64436396 111.71127208 -16.1231145 108.61294144 -16.20100403 104.96192932 C-16.21972061 104.16745895 -16.23843719 103.37298859 -16.25772095 102.55444336 C-16.27297821 101.69157715 -16.28823547 100.82871094 -16.30395508 99.93969727 C-16.32337662 99.02365219 -16.34279816 98.10760712 -16.36280823 97.1638031 C-16.53158254 88.7082102 -16.62832871 80.2513865 -16.70387745 71.79449558 C-16.75521226 66.12064563 -16.82958238 60.44923679 -16.96020508 54.77661133 C-17.08626279 49.27983423 -17.15232107 43.78525652 -17.17746544 38.28712273 C-17.19699051 36.20145706 -17.2372126 34.11587028 -17.29932594 32.03103828 C-17.80980809 14.05605114 -17.80980809 14.05605114 -11.81758404 6.8524847 C-5.33039007 0 -5.33039007 0 0 0 Z " fill="#9D6FDB" transform="translate(908,156)"/>
<path d="M0 0 C1.5525699 0.01089346 3.1051388 0.05293215 4.65625 0.12109375 C5.46707031 0.14357178 6.27789062 0.1660498 7.11328125 0.18920898 C18.33439124 0.59299893 26.48502401 1.84568507 35.15625 9.55859375 C43.25724117 18.43041532 42.83291937 31.53515693 42.50390625 42.9296875 C42.00063351 51.93267758 38.21698968 58.97748753 32.15625 65.55859375 C24.37707327 72.22645952 14.53570064 73.93411028 4.59375 74.12109375 C3.80774414 74.1478418 3.02173828 74.17458984 2.21191406 74.20214844 C-0.03515625 74.1875 -0.03515625 74.1875 -3.84375 73.55859375 C-6.79585871 69.85963943 -7.22177276 66.94017238 -7.23193359 62.28710938 C-7.24139008 61.04231812 -7.25084656 59.79752686 -7.2605896 58.51501465 C-7.25521954 57.16495443 -7.24906651 55.81489713 -7.2421875 54.46484375 C-7.24421011 53.07149096 -7.24712312 51.67813921 -7.25088501 50.28479004 C-7.25529959 47.3696074 -7.24890558 44.4547012 -7.23486328 41.53955078 C-7.21777149 37.8103866 -7.22761738 34.08187023 -7.24558067 30.3527298 C-7.25644218 27.47702184 -7.25296141 24.60146644 -7.2451973 21.72575378 C-7.24320181 20.35108869 -7.24563163 18.97640956 -7.25263596 17.60176086 C-7.26028851 15.67786946 -7.24654879 13.75392923 -7.23193359 11.83007812 C-7.22954681 10.73707397 -7.22716003 9.64406982 -7.22470093 8.51794434 C-6.54280737 3.2207736 -5.40898703 0.78606214 0 0 Z " fill="#FEFDFE" transform="translate(396.84375,181.44140625)"/>
<path d="M0 0 C1.08087891 0.05607422 1.08087891 0.05607422 2.18359375 0.11328125 C2.91191406 0.12746094 3.64023438 0.14164063 4.390625 0.15625 C9.68830265 0.3031357 9.68830265 0.3031357 12.05859375 1.48828125 C12.05859375 2.14828125 12.05859375 2.80828125 12.05859375 3.48828125 C12.86296875 3.63265625 13.66734375 3.77703125 14.49609375 3.92578125 C17.05859375 4.48828125 17.05859375 4.48828125 18.05859375 5.48828125 C18.21148638 7.73462679 18.28056842 9.98691299 18.30859375 12.23828125 C18.334375 13.470625 18.36015625 14.70296875 18.38671875 15.97265625 C17.96878356 20.45053325 16.5134486 22.97747045 13.43359375 26.17578125 C11.04058346 27.4982343 9.47118064 27.80366655 6.80859375 28.23828125 C1.22257586 29.29434433 -2.05231602 32.52501219 -5.94140625 36.48828125 C-5.18027321 40.68357406 -3.52164455 42.44866233 -0.30078125 45.1171875 C2.61235974 46.81008897 5.25674374 47.34540953 8.55859375 47.98828125 C14.40400122 49.13311912 18.38903998 50.6650885 22.05859375 55.48828125 C22.99609375 57.92578125 22.99609375 57.92578125 23.05859375 60.48828125 C23.14109375 61.62265625 23.22359375 62.75703125 23.30859375 63.92578125 C22.97489549 68.68098149 21.69911459 71.9043301 18.24609375 75.23828125 C13.01980554 78.22473166 7.86540951 78.87625774 1.93359375 78.92578125 C1.23105469 78.95865234 0.52851562 78.99152344 -0.1953125 79.02539062 C-3.77939263 79.06265422 -5.51716807 78.89642463 -8.13903809 76.37402344 C-10.31938901 72.88309923 -10.44795754 70.85281796 -10.45898438 66.7578125 C-10.46599365 66.10187103 -10.47300293 65.44592957 -10.48022461 64.77011108 C-10.49775433 62.61323042 -10.48620155 60.45767402 -10.47265625 58.30078125 C-10.47535265 56.79532623 -10.47923631 55.28987291 -10.48425293 53.78442383 C-10.49014111 50.63378266 -10.4816076 47.48359602 -10.46289062 44.33300781 C-10.44010074 40.30102865 -10.45322758 36.27011456 -10.47718048 32.23817444 C-10.49165732 29.13081891 -10.48702399 26.02371455 -10.47666931 22.91635132 C-10.4740072 21.43004225 -10.47725366 19.94371013 -10.48658752 18.45742798 C-10.49678516 16.37725719 -10.48121137 14.29879407 -10.45898438 12.21875 C-10.455802 11.03692139 -10.45261963 9.85509277 -10.44934082 8.63745117 C-9.41351998 2.21541178 -6.41165916 -0.10627059 0 0 Z " fill="#F9F9FE" transform="translate(1262.94140625,178.51171875)"/>
<path d="M0 0 C3 1 3 1 4.83203125 4.4375 C5.50544416 5.95251002 6.16469649 7.47386406 6.8125 9 C7.15925781 9.80219971 7.50601562 10.60439941 7.86328125 11.4309082 C10.21887771 16.9621215 12.43784259 22.54038067 14.5 28.1875 C14.88248901 29.2094043 14.88248901 29.2094043 15.27270508 30.25195312 C16.9276754 34.95622512 17 37.72683236 17 43 C6.11 43 -4.78 43 -16 43 C-7 7 -7 7 0 0 Z " fill="#FDFAFC" transform="translate(290,187)"/>
<path d="M0 0 C3 1 3 1 4.83203125 4.4375 C5.50544416 5.95251002 6.16469649 7.47386406 6.8125 9 C7.15925781 9.80219971 7.50601563 10.60439941 7.86328125 11.4309082 C10.21887771 16.9621215 12.43784259 22.54038067 14.5 28.1875 C14.88248901 29.2094043 14.88248901 29.2094043 15.27270508 30.25195312 C16.9276754 34.95622512 17 37.72683236 17 43 C6.11 43 -4.78 43 -16 43 C-14.87356233 35.11493628 -14.87356233 35.11493628 -13.58203125 31.43359375 C-13.29996826 30.6245459 -13.01790527 29.81549805 -12.72729492 28.98193359 C-12.4254126 28.14227051 -12.12353027 27.30260742 -11.8125 26.4375 C-11.50223877 25.56432129 -11.19197754 24.69114258 -10.87231445 23.79150391 C-3.60862464 3.60862464 -3.60862464 3.60862464 0 0 Z " fill="#FCF9FC" transform="translate(531,187)"/>
<path d="M0 0 C0.5775 0.226875 1.155 0.45375 1.75 0.6875 C1.03328125 1.08839844 0.3165625 1.48929688 -0.421875 1.90234375 C-5.98927674 5.41657386 -12.16196711 10.07542686 -14.1171875 16.56640625 C-14.34451062 18.98774194 -14.42531716 21.26399814 -14.25 23.6875 C-14.58 23.6875 -14.91 23.6875 -15.25 23.6875 C-16.05155629 18.48233202 -16.34614627 14.36504042 -13.38671875 9.8359375 C-4.01965372 -0.55828524 -4.01965372 -0.55828524 0 0 Z " fill="#CE96D5" transform="translate(607.25,156.3125)"/>
<path d="M0 0 C0.56460938 0.25007812 1.12921875 0.50015625 1.7109375 0.7578125 C-3.26187807 5.12355708 -8.25743232 9.45996172 -13.2890625 13.7578125 C-11.90470639 9.57497308 -9.99910902 7.00885631 -6.9140625 3.8828125 C-6.14320313 3.08101562 -5.37234375 2.27921875 -4.578125 1.453125 C-2.2890625 -0.2421875 -2.2890625 -0.2421875 0 0 Z " fill="#BD8EDC" transform="translate(783.2890625,156.2421875)"/>
<path d="M0 0 C0.66 0.33 1.32 0.66 2 1 C2.88671875 4.01953125 2.88671875 4.01953125 3.6875 7.8125 C3.95949219 9.05644531 4.23148438 10.30039063 4.51171875 11.58203125 C4.94068161 14.58477125 5.04478192 16.2162522 4 19 C2.40861915 14.82262526 1.78721942 11.46839215 2 7 C1.01 7.33 0.02 7.66 -1 8 C-0.67 5.36 -0.34 2.72 0 0 Z " fill="#DFC2E8" transform="translate(672,207)"/>
<path d="M0 0 C2.125 0.375 2.125 0.375 4 1 C-0.97281557 5.36574458 -5.96836982 9.70214922 -11 14 C-9.57442379 10.82096506 -7.8226848 8.46341568 -5.5 5.875 C-4.8915625 5.19179687 -4.283125 4.50859375 -3.65625 3.8046875 C-2.46695076 2.50880012 -1.24373566 1.24373566 0 0 Z " fill="#B089E1" transform="translate(904,156)"/>
<path d="M0 0 C2.0625 0.4375 2.0625 0.4375 4 1 C3.46890625 1.45890625 2.9378125 1.9178125 2.390625 2.390625 C-1.18324699 5.49493717 -4.71854059 8.58181312 -8 12 C-8.66 11.67 -9.32 11.34 -10 11 C-8.52116808 9.35386588 -7.04192523 7.70810092 -5.5625 6.0625 C-4.73878906 5.14597656 -3.91507813 4.22945312 -3.06640625 3.28515625 C-1 1 -1 1 0 0 Z " fill="#A88EEA" transform="translate(1063,156)"/>
<path d="M0 0 C0.99 0.33 1.98 0.66 3 1 C1.38113585 2.67262717 -0.2452729 4.33795537 -1.875 6 C-2.77992187 6.928125 -3.68484375 7.85625 -4.6171875 8.8125 C-7 11 -7 11 -9 11 C-7.59155282 7.78475695 -5.89655214 5.67816132 -3.375 3.25 C-2.74335937 2.63640625 -2.11171875 2.0228125 -1.4609375 1.390625 C-0.73777344 0.70226562 -0.73777344 0.70226562 0 0 Z " fill="#9B82EB" transform="translate(1114,157)"/>
<path d="M0 0 C0.66 0.33 1.32 0.66 2 1 C1.16855469 1.81404297 1.16855469 1.81404297 0.3203125 2.64453125 C-0.76636719 3.71767578 -0.76636719 3.71767578 -1.875 4.8125 C-2.59429688 5.52019531 -3.31359375 6.22789062 -4.0546875 6.95703125 C-6.15358937 9.04399194 -6.15358937 9.04399194 -8 12 C-8.33 10.68 -8.66 9.36 -9 8 C-6.03 5.36 -3.06 2.72 0 0 Z " fill="#968AF4" transform="translate(1265,207)"/>
<path d="M0 0 C-1.5830577 4.2742558 -4.50568404 6.26531794 -8 9 C-6.68994234 5.06982701 -4.75047804 0 0 0 Z " fill="#E693C3" transform="translate(280,160)"/>
<path d="M0 0 C0.66 0.33 1.32 0.66 2 1 C2 2.98 2 4.96 2 7 C1.01 7.33 0.02 7.66 -1 8 C-0.67 5.36 -0.34 2.72 0 0 Z " fill="#EEE0F3" transform="translate(672,207)"/>
</svg>
